<?xml version="1.0" encoding="UTF-8"?>
<svg width="117px" height="25px" viewBox="0 0 117 25" version="1.1" xmlns="http://www.w3.org/2000/svg" xmlns:xlink="http://www.w3.org/1999/xlink">
    <!-- Generator: Sketch 46.1 (44463) - http://www.bohemiancoding.com/sketch -->
    <title>logo</title>
    <desc>Created with Sketch.</desc>
    <defs></defs>
    <g id="Page-1" stroke="none" stroke-width="1" fill="none" fill-rule="evenodd">
        <g id="logo" fill="#F43019">
            <path d="M0.48,20.168 L4.968,20.168 L4.968,20.36 C4.968,21.176 5.448,21.776 6.912,21.776 C8.352,21.776 9.24,21.272 9.24,19.712 L9.24,18.128 C8.616,19.208 7.152,19.4 5.928,19.4 C1.824,19.4 0.432,16.256 0.432,13.424 C0.432,10.088 2.064,7.232 6.288,7.232 C8.088,7.232 9.024,7.808 9.696,8.744 L9.696,7.568 L13.968,7.568 L13.968,19.544 C13.968,23.576 10.8,24.68 6.888,24.68 C3.576,24.68 0.48,24.176 0.48,20.48 L0.48,20.168 Z M9.12,13.352 C9.12,12.32 8.976,10.664 7.296,10.664 C6.096,10.664 5.136,11.336 5.136,13.544 C5.136,15.752 6.12,16.136 7.08,16.136 C8.88,16.136 9.12,14.552 9.12,13.352 Z M28.92,20 L24.048,20 L24.048,19.04 C22.944,19.76 22.104,20.288 19.92,20.288 C17.4,20.288 15.456,18.848 15.456,16.28 C15.456,15.608 15.6,14.12 17.16,13.064 C18.888,11.888 21.672,12.2 23.808,11.456 C23.76,10.568 23.544,10.04 22.128,10.04 C20.976,10.04 20.64,10.424 20.52,11.192 C20.52,11.192 16.512,11.288 15.864,11.312 C16.224,9.68 16.776,7.16 22.584,7.16 C25.512,7.16 28.488,7.808 28.488,11.432 L28.488,18.464 C28.488,19.376 28.608,19.568 28.92,20 Z M23.784,14.672 L23.784,14.216 C22.728,14.72 20.04,14.84 20.04,16.136 C20.04,16.52 20.352,17.096 21.264,17.096 C22.488,17.096 23.784,16.088 23.784,14.672 Z M43.848,20 L43.848,12.056 C43.848,8.984 42.288,7.256 39.24,7.256 C37.632,7.256 36.024,7.784 35.16,9.224 L35.16,7.568 L30.48,7.568 L30.48,20 L35.424,20 L35.424,13.328 C35.424,12.776 35.424,11.336 37.2,11.336 C38.64,11.336 38.904,12.224 38.904,13.208 L38.904,20 L43.848,20 Z M45.48,20.168 L49.968,20.168 L49.968,20.36 C49.968,21.176 50.448,21.776 51.912,21.776 C53.352,21.776 54.24,21.272 54.24,19.712 L54.24,18.128 C53.616,19.208 52.152,19.4 50.928,19.4 C46.824,19.4 45.432,16.256 45.432,13.424 C45.432,10.088 47.064,7.232 51.288,7.232 C53.088,7.232 54.024,7.808 54.696,8.744 L54.696,7.568 L58.968,7.568 L58.968,19.544 C58.968,23.576 55.8,24.68 51.888,24.68 C48.576,24.68 45.48,24.176 45.48,20.48 L45.48,20.168 Z M54.12,13.352 C54.12,12.32 53.976,10.664 52.296,10.664 C51.096,10.664 50.136,11.336 50.136,13.544 C50.136,15.752 51.12,16.136 52.08,16.136 C53.88,16.136 54.12,14.552 54.12,13.352 Z M61.008,3.056 L65.928,3.056 L65.928,8.432 C66.792,7.568 67.896,7.208 69.096,7.208 C72.288,7.208 74.52,9.608 74.52,13.52 C74.52,14.264 74.376,20.312 68.904,20.312 C67.368,20.312 66.288,19.76 65.784,19.088 L65.784,20 L61.008,20 L61.008,3.056 Z M69.648,13.76 C69.648,12.368 69.216,10.736 67.752,10.736 C66.144,10.736 65.808,12.56 65.808,13.76 C65.808,15.32 66.24,16.736 67.728,16.736 C68.64,16.736 69.648,16.04 69.648,13.76 Z M88.92,20 L84.048,20 L84.048,19.04 C82.944,19.76 82.104,20.288 79.92,20.288 C77.4,20.288 75.456,18.848 75.456,16.28 C75.456,15.608 75.6,14.12 77.16,13.064 C78.888,11.888 81.672,12.2 83.808,11.456 C83.76,10.568 83.544,10.04 82.128,10.04 C80.976,10.04 80.64,10.424 80.52,11.192 C80.52,11.192 76.512,11.288 75.864,11.312 C76.224,9.68 76.776,7.16 82.584,7.16 C85.512,7.16 88.488,7.808 88.488,11.432 L88.488,18.464 C88.488,19.376 88.608,19.568 88.92,20 Z M83.784,14.672 L83.784,14.216 C82.728,14.72 80.04,14.84 80.04,16.136 C80.04,16.52 80.352,17.096 81.264,17.096 C82.488,17.096 83.784,16.088 83.784,14.672 Z M101.688,8.864 C100.128,7.544 97.752,7.064 95.76,7.064 C91.824,7.064 90.12,9.248 90.12,11.312 C90.12,14.12 92.376,14.888 96.144,15.56 C97.08,15.728 97.392,15.92 97.392,16.328 C97.392,16.928 96.744,17.144 96.096,17.144 C94.416,17.144 92.928,16.208 92.256,15.464 L89.472,17.984 C91.32,19.568 93.576,20.48 96.144,20.48 C99.576,20.48 102.048,18.632 102.048,15.848 C102.048,13.904 100.776,12.608 98.544,12.104 L96.768,11.696 C95.064,11.312 94.776,11.192 94.776,10.736 C94.776,10.256 95.328,10.112 95.832,10.112 C97.344,10.112 98.544,11 99.024,11.288 L101.688,8.864 Z M116.616,14.672 L107.952,14.672 C107.952,15.224 108.072,17 109.992,17 C111.672,17 112.152,15.632 112.296,15.392 L116.352,17.096 C115.464,18.56 113.472,20.504 109.8,20.504 C104.808,20.504 102.912,16.808 102.912,13.712 C102.912,8.864 106.656,7.04 109.752,7.04 C114.336,7.04 116.616,10.184 116.616,13.904 L116.616,14.672 Z M108,12.056 L111.6,12.056 C111.504,10.784 110.784,10.184 109.848,10.184 C108.528,10.184 108,11.528 108,12.056 Z" id="gangbase"></path>
        </g>
    </g>
</svg>